<svg xmlns="http://www.w3.org/2000/svg" fill="#fff" viewBox="0 0 568 348" role="img" aria-label="Gesta">
  <path
    d="M319.331 0h122.24c.65 0 1.18.53 1.18 1.18v12.96c0 .65-.53 1.18-1.18 1.18h-24.1v90.76c0 .65-.53 1.18-1.18 1.18h-12.96c-.65 0-1.18-.53-1.18-1.18V15.33h-82.81c-.65 0-1.18-.53-1.18-1.18V1.18c-.02-.65.51-1.18 1.17-1.18ZM543.941 0c12.7 0 22.99 10.29 22.99 22.99v83.1c0 .65-.53 1.18-1.18 1.18h-12.96c-.65 0-1.18-.53-1.18-1.18V61.3h-81.99v44.79c0 .65-.53 1.18-1.18 1.18h-12.96c-.65 0-1.18-.53-1.18-1.18v-83.1c0-12.7 10.29-22.99 22.99-22.99h66.65Zm0 15.33h-66.66a7.66 7.66 0 0 0-7.66 7.66v22.99h81.99V22.99c-.01-4.23-3.44-7.66-7.67-7.66ZM22.99 15.33h94.59c.65 0 1.18-.53 1.18-1.18V1.18c0-.65-.53-1.18-1.18-1.18H22.99C10.29 0 0 10.29 0 22.99v61.3c0 12.7 10.29 22.99 22.99 22.99h81.4c.65 0 1.18-.53 1.18-1.18V47.16c0-.65-.53-1.18-1.18-1.18H73.02c-.65 0-1.18.53-1.18 1.18v12.96c0 .65.53 1.18 1.18 1.18h17.22v30.65H22.99a7.66 7.66 0 0 1-7.66-7.66v-61.3a7.66 7.66 0 0 1 7.66-7.66ZM256.619 29.12v-6.13a7.66 7.66 0 0 1 7.66-7.66h40.68c.65 0 1.18-.53 1.18-1.18V1.18c0-.65-.53-1.18-1.18-1.18h-40.68c-12.7 0-22.99 10.29-22.99 22.99v9.2c0 29.88 93.48 29.12 93.48 45.97v6.13a7.66 7.66 0 0 1-7.66 7.66h-54.28c-.65 0-1.18.53-1.18 1.18v12.96c0 .65.53 1.18 1.18 1.18h54.28c12.7 0 22.99-10.29 22.99-22.99v-9.2c0-28.34-93.48-29.11-93.48-45.96Z"
    fill="#fff"
  />
  <path
    d="M259.33 91.95H153.24a7.66 7.66 0 0 1-7.66-7.66V61.3h55.52c.65 0 1.18-.53 1.18-1.18V47.16c0-.65-.53-1.18-1.18-1.18h-55.52V15.33h83.16c.65 0 1.18-.53 1.18-1.18V1.18c0-.65-.53-1.18-1.18-1.18h-97.3c-.65 0-1.18.53-1.18 1.18v83.1c0 12.7 10.29 22.99 22.99 22.99h106.09c.65 0 1.18-.53 1.18-1.18V93.13c0-.65-.53-1.18-1.19-1.18Z"
    fill="#fff"
  />
  <path
    d="M27.71 143.18v-11.34c0-2.57 1.21-3.78 3.78-3.78h6.02c2.57 0 3.78 1.22 3.78 3.78v2.03H38.7v-1.94c0-1.08-.41-1.49-1.46-1.49h-5.48c-1.05 0-1.46.4-1.46 1.49v11.18c0 1.08.4 1.48 1.46 1.48h5.48c1.05 0 1.46-.4 1.46-1.48v-3.83h-4.48v-2.32h7.07v6.24c0 2.57-1.21 3.78-3.78 3.78h-6.02c-2.57-.02-3.78-1.23-3.78-3.8ZM59.682 128.06h2.59v16.53h8.97v2.38h-11.56v-18.91ZM87.791 143.18v-11.34c0-2.57 1.21-3.78 3.78-3.78h6.29c2.57 0 3.78 1.22 3.78 3.78v11.34c0 2.57-1.22 3.78-3.78 3.78h-6.29c-2.57 0-3.78-1.21-3.78-3.78Zm9.77 1.41c1.08 0 1.49-.4 1.49-1.48v-11.18c0-1.08-.4-1.49-1.49-1.49h-5.72c-1.05 0-1.46.4-1.46 1.49v11.18c0 1.08.4 1.48 1.46 1.48h5.72ZM120.051 128.06h9.4c2.57 0 3.78 1.22 3.78 3.78v2.59c0 1.49-.65 2.38-1.76 2.86 1.32.46 1.97 1.4 1.97 2.89v3c0 2.57-1.22 3.78-3.78 3.78h-9.61v-18.9Zm9.1 8.07c1.08 0 1.49-.4 1.49-1.46v-2.78c0-1.08-.4-1.48-1.49-1.48h-6.51v5.72h6.51Zm.22 8.48c1.08 0 1.49-.41 1.49-1.49v-3.21c0-1.08-.4-1.49-1.49-1.49h-6.72v6.18h6.72v.01ZM161.471 141.8h-7.48l-1.73 5.16h-2.7l6.56-18.9h3.35l6.56 18.9h-2.84l-1.72-5.16Zm-.78-2.37-2.94-8.86-2.97 8.86h5.91ZM183.182 128.06h2.59v16.53h8.97v2.38h-11.56v-18.91ZM232.111 128.06h3.05l5.86 12.94 5.89-12.94h3.05v18.9h-2.54v-14.69l-5.35 12.04h-2.13l-5.35-12.04v14.69h-2.48v-18.9ZM279.012 141.8h-7.48l-1.73 5.16h-2.7l6.56-18.9h3.35l6.56 18.9h-2.84l-1.72-5.16Zm-.78-2.37-2.94-8.86-2.97 8.86h5.91ZM300.721 128.06h2.81l8.99 14.72v-14.72h2.48v18.9h-2.59l-9.21-15.01v15.01h-2.48v-18.9ZM344.082 141.8h-7.48l-1.73 5.16h-2.7l6.56-18.9h3.35l6.56 18.9h-2.84l-1.72-5.16Zm-.78-2.37-2.94-8.86-2.97 8.86h5.91ZM364.951 143.18v-11.34c0-2.57 1.21-3.78 3.78-3.78h6.02c2.57 0 3.78 1.22 3.78 3.78v2.03h-2.59v-1.94c0-1.08-.4-1.49-1.46-1.49h-5.48c-1.05 0-1.46.4-1.46 1.49v11.18c0 1.08.4 1.48 1.46 1.48h5.48c1.05 0 1.46-.4 1.46-1.48v-3.83h-4.48v-2.32h7.07v6.24c0 2.57-1.21 3.78-3.78 3.78h-6.02c-2.56-.02-3.78-1.23-3.78-3.8ZM396.922 128.06h12.23v2.38h-9.64v5.67h8.02v2.38h-8.02v6.1h9.64v2.38h-12.23v-18.91ZM427.031 128.06h3.05l5.86 12.94 5.89-12.94h3.05v18.9h-2.54v-14.69l-5.35 12.04h-2.13l-5.35-12.04v14.69h-2.48v-18.9ZM463.781 128.06h12.23v2.38h-9.64v5.67h8.02v2.38h-8.02v6.1h9.64v2.38h-12.23v-18.91ZM493.881 128.06h2.81l8.99 14.72v-14.72h2.48v18.9h-2.59l-9.21-15.01v15.01h-2.48v-18.9ZM531.04 130.41h-5.56v-2.35h13.75v2.35h-5.589v16.55h-2.591v-16.55h-.01Z"
    fill="#fff"
    className="text"
  />
</svg>